HIERARCHY
ROOT Pelvis
{
	OFFSET 0.000000 0.000000 0.000000
	CHANNELS 6 Xposition Yposition Zposition Xrotation Yrotation Zrotation
	JOINT LeftUpLeg_virtual
	{
		OFFSET 0.000000 0.000000 0.000000
		CHANNELS 3 Xrotation Yrotation Zrotation
		JOINT LeftUpLeg
		{
			OFFSET 18.735201 -5.666702 -4.541200
			CHANNELS 3 Xrotation Yrotation Zrotation
			JOINT LeftLeg
			{
				OFFSET -0.021200 -31.938179 0.493100
				CHANNELS 3 Xrotation Yrotation Zrotation
				JOINT LeftFoot
				{
					OFFSET 0.021200 -31.938179 -4.336299
					CHANNELS 3 Xrotation Yrotation Zrotation
					JOINT LeftToeBase
					{
						OFFSET 0.943001 -26.722000 15.023500
						CHANNELS 3 Xrotation Yrotation Zrotation
						End Site
						{
							OFFSET 0 0 0
						}
					}
				}
			}
		}
	}
	JOINT RightUpLeg_virtual
	{
		OFFSET 0.000000 0.000000 0.000000
		CHANNELS 3 Xrotation Yrotation Zrotation
		JOINT RightUpLeg
		{
			OFFSET -18.735201 -5.666702 -4.541200
			CHANNELS 3 Xrotation Yrotation Zrotation
			JOINT RightLeg
			{
				OFFSET 0.018946 -31.938133 0.493100
				CHANNELS 3 Xrotation Yrotation Zrotation
				JOINT RightFoot
				{
					OFFSET -0.018946 -31.938126 -4.336299
					CHANNELS 3 Xrotation Yrotation Zrotation
					JOINT RightToeBase
					{
						OFFSET -0.943001 -26.722004 15.023500
						CHANNELS 3 Xrotation Yrotation Zrotation
						End Site
						{
							OFFSET 0 0 0
						}
					}
				}
			}
		}
	}
	JOINT Hips_virtual
	{
		OFFSET 0.000000 0.000000 0.000000
		CHANNELS 3 Xrotation Yrotation Zrotation
		JOINT Hips
		{
			OFFSET -0.000000 -0.000000 -0.000000
			CHANNELS 3 Xrotation Yrotation Zrotation
			JOINT Spine
			{
				OFFSET 0.000000 10.199997 -0.299500
				CHANNELS 3 Xrotation Yrotation Zrotation
				JOINT Spine1
				{
					OFFSET 0.000000 11.900002 -1.516600
					CHANNELS 3 Xrotation Yrotation Zrotation
					JOINT Spine2
					{
						OFFSET 0.000000 13.600006 -2.842500
						CHANNELS 3 Xrotation Yrotation Zrotation
						JOINT Neck_virtual
						{
							OFFSET 0.000000 0.000000 0.000000
							CHANNELS 3 Xrotation Yrotation Zrotation
							JOINT Neck
							{
								OFFSET 0.000000 9.624100 -2.890100
								CHANNELS 3 Xrotation Yrotation Zrotation
								JOINT Head
								{
									OFFSET 0.000000 14.068802 -1.351900
									CHANNELS 3 Xrotation Yrotation Zrotation
									End Site
									{
										OFFSET 0 0 0
									}
								}
							}
						}
						JOINT LeftShoulder_virtual
						{
							OFFSET 0.000000 0.000000 0.000000
							CHANNELS 3 Xrotation Yrotation Zrotation
							JOINT LeftShoulder
							{
								OFFSET 15.263000 10.923401 -0.547700
								CHANNELS 3 Xrotation Yrotation Zrotation
								JOINT LeftArm
								{
									OFFSET 25.438599 -2.830597 -13.032500
									CHANNELS 3 Xrotation Yrotation Zrotation
									JOINT LeftForeArm
									{
										OFFSET 29.960503 0.000000 0.000000
										CHANNELS 3 Xrotation Yrotation Zrotation
										JOINT LeftHand
										{
											OFFSET 27.849251 0.000000 0.000000
											CHANNELS 3 Xrotation Yrotation Zrotation
											End Site
											{
												OFFSET 0 0 0
											}
										}
									}
								}
							}
						}
						JOINT RightShoulder_virtual
						{
							OFFSET 0.000000 0.000000 0.000000
							CHANNELS 3 Xrotation Yrotation Zrotation
							JOINT RightShoulder
							{
								OFFSET -15.263000 10.923401 -0.547700
								CHANNELS 3 Xrotation Yrotation Zrotation
								JOINT RightArm
								{
									OFFSET -25.438599 -2.830597 -13.032500
									CHANNELS 3 Xrotation Yrotation Zrotation
									JOINT RightForeArm
									{
										OFFSET -29.960503 0.000000 0.000000
										CHANNELS 3 Xrotation Yrotation Zrotation
										JOINT RightHand
										{
											OFFSET -27.849251 0.000000 0.000000
											CHANNELS 3 Xrotation Yrotation Zrotation
											End Site
											{
												OFFSET 0 0 0
											}
										}
									}
								}
							}
						}
					}
				}
			}
		}
	}
}
MOTION
Frames: 10
Frame Time: 0.03333333
-4.207012 91.505615 -3.341541 0.000000 0.000000 0.000000 -2.957697 -1.414929 2.074839 -22.002828 6.230285 3.279689 35.373748 7.034053 -1.315390 -9.887121 0.745971 -2.422668 0.000000 0.000000 0.000000 -2.957697 -1.414929 2.074839 -5.651223 -16.216370 -15.912934 30.570318 0.291262 -5.660137 -21.040953 -2.864434 17.935781 0.000000 0.000000 0.000000 -2.957697 -1.414929 2.074839 0.000000 0.000000 0.000000 8.849755 2.869899 -5.048200 1.276165 0.577129 -0.622580 0.000000 0.000000 0.000000 1.278388 0.567047 -0.629523 -2.423613 0.191986 0.374483 0.000000 0.000000 0.000000 1.278388 0.567047 -0.629523 -0.302513 5.872711 -1.999016 -14.720678 -10.177253 -69.280999 0.000001 -33.970222 0.000016 0.000000 0.000000 0.000000 1.278388 0.567047 -0.629523 4.545750 12.838999 -7.835332 -1.611809 -3.214995 72.442523 -0.000000 36.829712 0.000008 0.000000 0.000000 0.000000 
-4.249151 91.500076 -3.457470 0.000000 0.000000 0.000000 -2.861523 -1.487220 2.057180 -22.156165 6.246920 3.359439 35.383576 7.295707 -1.360684 -9.817532 0.764345 -2.458870 0.000000 0.000000 0.000000 -2.861523 -1.487220 2.057180 -5.863424 -16.116320 -15.823093 30.644125 0.419802 -5.620234 -21.107883 -2.982534 17.771153 0.000000 0.000000 0.000000 -2.861523 -1.487220 2.057180 0.000000 0.000000 0.000000 8.972084 2.764807 -5.160910 1.296463 0.561209 -0.636463 0.000000 0.000000 0.000000 1.298514 0.551111 -0.643278 -2.451090 0.167274 0.467838 0.000000 0.000000 0.000000 1.298514 0.551111 -0.643278 -0.303983 5.822775 -1.781757 -14.889686 -10.799711 -69.024416 0.000003 -34.489901 -0.000002 0.000000 0.000000 0.000000 1.298514 0.551111 -0.643278 4.504494 12.696257 -7.406781 -1.846141 -3.449438 72.003786 0.000013 37.086568 -0.000010 0.000000 0.000000 0.000000 
-4.293454 91.496033 -3.582237 0.000000 0.000000 0.000000 -2.752948 -1.553821 2.033562 -22.330953 6.244257 3.434835 35.388907 7.590259 -1.389626 -9.732969 0.777904 -2.510827 0.000000 0.000000 0.000000 -2.752948 -1.553821 2.033562 -6.095696 -16.014680 -15.738516 30.719449 0.523420 -5.570968 -21.152485 -3.077966 17.628652 0.000000 0.000000 0.000000 -2.752948 -1.553821 2.033562 0.000000 0.000000 0.000000 9.102131 2.637223 -5.249058 1.319394 0.540907 -0.647529 0.000000 0.000000 0.000000 1.321270 0.530791 -0.654147 -2.475154 0.145614 0.551872 0.000000 0.000000 0.000000 1.321270 0.530791 -0.654147 -0.303279 5.756983 -1.555983 -15.042472 -11.360662 -68.812640 0.000007 -34.989212 -0.000003 0.000000 0.000000 0.000000 1.321270 0.530791 -0.654147 4.474243 12.585513 -7.073513 -2.036077 -3.701650 71.662235 0.000002 37.330187 -0.000003 0.000000 0.000000 0.000000 
-4.344829 91.496498 -3.730400 0.000000 0.000000 0.000000 -2.601111 -1.588720 1.995190 -22.573265 6.177778 3.486773 35.370749 8.006471 -1.360937 -9.597355 0.747654 -2.618305 0.000000 0.000000 0.000000 -2.601111 -1.588720 1.995190 -6.387890 -15.915458 -15.672223 30.802090 0.553799 -5.485538 -21.138640 -3.115385 17.541674 0.000000 0.000000 0.000000 -2.601111 -1.588720 1.995190 0.000000 0.000000 0.000000 9.245543 2.441075 -5.272626 1.348061 0.507319 -0.651501 0.000000 0.000000 0.000000 1.349748 0.497194 -0.657720 -2.489893 0.131616 0.613011 0.000000 0.000000 0.000000 1.349748 0.497194 -0.657720 -0.297160 5.645769 -1.293702 -15.168831 -11.755815 -68.723820 0.000019 -35.439731 0.000042 0.000000 0.000000 0.000000 1.349748 0.497194 -0.657720 4.469013 12.563348 -6.980665 -2.107502 -4.025331 71.586748 0.000002 37.565299 0.000003 0.000000 0.000000 0.000000 
-4.397264 91.498421 -3.893497 0.000000 0.000000 0.000000 -2.448995 -1.647120 1.943570 -22.827213 6.103720 3.555633 35.360685 8.409068 -1.333168 -9.456744 0.771289 -2.725482 0.000000 0.000000 0.000000 -2.448995 -1.647120 1.943570 -6.702024 -15.800741 -15.603388 30.886652 0.553564 -5.408499 -21.094443 -3.111143 17.493605 0.000000 0.000000 0.000000 -2.448995 -1.647120 1.943570 0.000000 0.000000 0.000000 9.416233 2.224630 -5.253311 1.383674 0.469616 -0.649913 0.000000 0.000000 0.000000 1.385199 0.459451 -0.655662 -2.498942 0.123268 0.654452 0.000000 0.000000 0.000000 1.385199 0.459451 -0.655662 -0.286551 5.514381 -1.044846 -15.270247 -12.043483 -68.677634 -0.000001 -35.845379 -0.000008 0.000000 0.000000 0.000000 1.385199 0.459451 -0.655662 4.475544 12.587488 -7.070215 -2.082175 -4.351410 71.670309 -0.000000 37.724655 -0.000012 0.000000 0.000000 0.000000 
-4.445251 91.500214 -4.067329 0.000000 0.000000 0.000000 -2.339956 -1.765556 1.878590 -23.043911 6.057477 3.671423 35.385421 8.689458 -1.349757 -9.343828 0.936829 -2.791647 0.000000 0.000000 0.000000 -2.339956 -1.765556 1.878590 -6.995475 -15.660726 -15.510682 30.965762 0.551950 -5.385772 -21.036414 -3.082010 17.482516 0.000000 0.000000 0.000000 -2.339956 -1.765556 1.878590 0.000000 0.000000 0.000000 9.631243 2.008687 -5.192323 1.429080 0.431556 -0.642607 0.000000 0.000000 0.000000 1.430489 0.421271 -0.647859 -2.502145 0.120906 0.671533 0.000000 0.000000 0.000000 1.430489 0.421271 -0.647859 -0.271366 5.373834 -0.850811 -15.332234 -12.234166 -68.632855 0.000015 -36.212563 0.000011 0.000000 0.000000 0.000000 1.430489 0.421271 -0.647859 4.487080 12.634551 -7.361239 -1.952238 -4.614775 71.883861 0.000000 37.704290 0.000000 0.000000 0.000000 0.000000 
-4.492079 91.499855 -4.253689 0.000000 0.000000 0.000000 -2.241981 -1.974200 1.797587 -23.254448 6.057130 3.846617 35.450707 8.855275 -1.414991 -9.265608 1.236083 -2.816779 0.000000 0.000000 0.000000 -2.241981 -1.974200 1.797587 -7.323224 -15.474921 -15.408142 31.053554 0.540895 -5.385926 -20.964605 -2.990709 17.496549 0.000000 0.000000 0.000000 -2.241981 -1.974200 1.797587 0.000000 0.000000 0.000000 9.886913 1.829627 -5.111105 1.482457 0.400477 -0.630390 0.000000 0.000000 0.000000 1.483809 0.390016 -0.635222 -2.504702 0.122159 0.674059 0.000000 0.000000 0.000000 1.483809 0.390016 -0.635222 -0.254135 5.236804 -0.708906 -15.383097 -12.369736 -68.553270 0.000010 -36.505374 0.000013 0.000000 0.000000 0.000000 1.483809 0.390016 -0.635222 4.504586 12.705219 -7.769212 -1.737129 -4.848041 72.160607 -0.000010 37.618947 0.000019 0.000000 0.000000 0.000000 
-4.536258 91.496559 -4.451794 0.000000 0.000000 0.000000 -2.148259 -2.309813 1.702636 -23.454269 6.146681 4.103087 35.558839 8.844732 -1.561181 -9.239404 1.712705 -2.766541 0.000000 0.000000 0.000000 -2.148259 -2.309813 1.702636 -7.718436 -15.230507 -15.319126 31.162151 0.524973 -5.387526 -20.879458 -2.795925 17.525166 0.000000 0.000000 0.000000 -2.148259 -2.309813 1.702636 0.000000 0.000000 0.000000 10.188237 1.736828 -5.030271 1.543415 0.385970 -0.613773 0.000000 0.000000 0.000000 1.544804 0.375275 -0.618394 -2.511016 0.124753 0.669666 0.000000 0.000000 0.000000 1.544804 0.375275 -0.618394 -0.237023 5.117789 -0.641734 -15.436996 -12.503063 -68.380384 0.000013 -36.701431 0.000033 0.000000 0.000000 0.000000 1.544804 0.375275 -0.618394 4.525087 12.788744 -8.235029 -1.449922 -5.035541 72.432845 -0.000005 37.515917 0.000024 0.000000 0.000000 0.000000 
-4.586532 91.485001 -4.665932 0.000000 0.000000 0.000000 -2.026643 -2.789306 1.581438 -23.696879 6.285295 4.439874 35.742476 8.758734 -1.746758 -9.274483 2.298679 -2.700422 0.000000 0.000000 0.000000 -2.026643 -2.789306 1.581438 -8.203695 -14.893291 -15.197521 31.284111 0.500279 -5.405248 -20.782602 -2.528650 17.575634 0.000000 0.000000 0.000000 -2.026643 -2.789306 1.581438 0.000000 0.000000 0.000000 10.526281 1.712207 -4.953588 1.610496 0.385030 -0.593486 0.000000 0.000000 0.000000 1.611994 0.374073 -0.598060 -2.523262 0.128788 0.660212 0.000000 0.000000 0.000000 1.611994 0.374073 -0.598060 -0.222230 5.022182 -0.614737 -15.519056 -12.613533 -68.143302 0.000007 -36.766498 0.000009 0.000000 0.000000 0.000000 1.611994 0.374073 -0.598060 4.553063 12.895407 -8.701369 -1.108333 -5.258581 72.672475 -0.000009 37.493463 0.000018 0.000000 0.000000 0.000000 
-4.655601 91.459656 -4.897049 0.000000 0.000000 0.000000 -1.838353 -3.477086 1.408381 -24.038228 6.456874 4.885905 36.060059 8.683738 -1.939054 -9.407915 2.962250 -2.674397 0.000000 0.000000 0.000000 -1.838353 -3.477086 1.408381 -8.813178 -14.398425 -14.977900 31.399933 0.466577 -5.453496 -20.659311 -2.200647 17.653548 0.000000 0.000000 0.000000 -1.838353 -3.477086 1.408381 0.000000 0.000000 0.000000 10.894474 1.771572 -4.891151 1.682148 0.401098 -0.569013 0.000000 0.000000 0.000000 1.683821 0.389883 -0.573750 -2.545565 0.134034 0.649419 0.000000 0.000000 0.000000 1.683821 0.389883 -0.573750 -0.211760 4.962241 -0.613174 -15.670213 -12.710947 -67.848640 0.000002 -36.650618 0.000002 0.000000 0.000000 0.000000 1.683821 0.389883 -0.573750 4.596162 13.048087 -9.084092 -0.721988 -5.615091 72.828012 -0.000001 37.716527 -0.000010 0.000000 0.000000 0.000000 
